<mxfile host="app.diagrams.net" agent="Mozilla/5.0 (Windows NT 10.0; Win64; x64) AppleWebKit/537.36 (KHTML, like Gecko) Chrome/127.0.0.0 Safari/537.36" version="24.7.7">
  <diagram name="第 1 页" id="cl_MAQmrxfUZXu64xWyR">
    <mxGraphModel dx="1221" dy="725" grid="1" gridSize="10" guides="1" tooltips="1" connect="1" arrows="1" fold="1" page="1" pageScale="1" pageWidth="827" pageHeight="1169" math="0" shadow="0">
      <root>
        <mxCell id="0" />
        <mxCell id="1" parent="0" />
        <mxCell id="6aMnD60w7TeSPYlvOzXC-1" value="&lt;font style=&quot;font-size: 14px;&quot;&gt;&lt;b&gt;特定场景下人员和车辆的投送点计算&lt;/b&gt;&lt;/font&gt;" style="shape=process;whiteSpace=wrap;html=1;backgroundOutline=1;" vertex="1" parent="1">
          <mxGeometry x="280" y="140" width="360" height="60" as="geometry" />
        </mxCell>
        <mxCell id="6aMnD60w7TeSPYlvOzXC-5" style="edgeStyle=orthogonalEdgeStyle;rounded=0;orthogonalLoop=1;jettySize=auto;html=1;exitX=0.5;exitY=1;exitDx=0;exitDy=0;" edge="1" parent="1" source="6aMnD60w7TeSPYlvOzXC-2" target="6aMnD60w7TeSPYlvOzXC-3">
          <mxGeometry relative="1" as="geometry" />
        </mxCell>
        <mxCell id="6aMnD60w7TeSPYlvOzXC-2" value="用户定义特定场景" style="rounded=1;whiteSpace=wrap;html=1;" vertex="1" parent="1">
          <mxGeometry x="320" y="240" width="120" height="60" as="geometry" />
        </mxCell>
        <mxCell id="6aMnD60w7TeSPYlvOzXC-6" style="edgeStyle=orthogonalEdgeStyle;rounded=0;orthogonalLoop=1;jettySize=auto;html=1;exitX=0.5;exitY=1;exitDx=0;exitDy=0;" edge="1" parent="1" source="6aMnD60w7TeSPYlvOzXC-3" target="6aMnD60w7TeSPYlvOzXC-4">
          <mxGeometry relative="1" as="geometry" />
        </mxCell>
        <mxCell id="6aMnD60w7TeSPYlvOzXC-3" value="系统预载地理环境" style="rounded=1;whiteSpace=wrap;html=1;" vertex="1" parent="1">
          <mxGeometry x="320" y="330" width="120" height="60" as="geometry" />
        </mxCell>
        <mxCell id="6aMnD60w7TeSPYlvOzXC-8" style="edgeStyle=orthogonalEdgeStyle;rounded=0;orthogonalLoop=1;jettySize=auto;html=1;exitX=0.5;exitY=1;exitDx=0;exitDy=0;" edge="1" parent="1" source="6aMnD60w7TeSPYlvOzXC-4" target="6aMnD60w7TeSPYlvOzXC-7">
          <mxGeometry relative="1" as="geometry" />
        </mxCell>
        <mxCell id="6aMnD60w7TeSPYlvOzXC-4" value="投送资源信息输入" style="rounded=1;whiteSpace=wrap;html=1;" vertex="1" parent="1">
          <mxGeometry x="320" y="420" width="120" height="60" as="geometry" />
        </mxCell>
        <mxCell id="6aMnD60w7TeSPYlvOzXC-10" style="edgeStyle=orthogonalEdgeStyle;rounded=0;orthogonalLoop=1;jettySize=auto;html=1;exitX=1;exitY=0.5;exitDx=0;exitDy=0;entryX=0;entryY=0.5;entryDx=0;entryDy=0;" edge="1" parent="1" source="6aMnD60w7TeSPYlvOzXC-7" target="6aMnD60w7TeSPYlvOzXC-9">
          <mxGeometry relative="1" as="geometry" />
        </mxCell>
        <mxCell id="6aMnD60w7TeSPYlvOzXC-7" value="系统分析可能投送点" style="rounded=1;whiteSpace=wrap;html=1;" vertex="1" parent="1">
          <mxGeometry x="320" y="510" width="120" height="60" as="geometry" />
        </mxCell>
        <mxCell id="6aMnD60w7TeSPYlvOzXC-14" style="edgeStyle=orthogonalEdgeStyle;rounded=0;orthogonalLoop=1;jettySize=auto;html=1;exitX=0.5;exitY=0;exitDx=0;exitDy=0;entryX=0.5;entryY=1;entryDx=0;entryDy=0;" edge="1" parent="1" source="6aMnD60w7TeSPYlvOzXC-9" target="6aMnD60w7TeSPYlvOzXC-11">
          <mxGeometry relative="1" as="geometry" />
        </mxCell>
        <mxCell id="6aMnD60w7TeSPYlvOzXC-9" value="评估标准设定" style="rounded=1;whiteSpace=wrap;html=1;" vertex="1" parent="1">
          <mxGeometry x="490" y="510" width="120" height="60" as="geometry" />
        </mxCell>
        <mxCell id="6aMnD60w7TeSPYlvOzXC-15" style="edgeStyle=orthogonalEdgeStyle;rounded=0;orthogonalLoop=1;jettySize=auto;html=1;exitX=0.5;exitY=0;exitDx=0;exitDy=0;entryX=0.5;entryY=1;entryDx=0;entryDy=0;" edge="1" parent="1" source="6aMnD60w7TeSPYlvOzXC-11" target="6aMnD60w7TeSPYlvOzXC-12">
          <mxGeometry relative="1" as="geometry" />
        </mxCell>
        <mxCell id="6aMnD60w7TeSPYlvOzXC-11" value="计算推荐最佳投送点" style="rounded=1;whiteSpace=wrap;html=1;" vertex="1" parent="1">
          <mxGeometry x="490" y="420" width="120" height="60" as="geometry" />
        </mxCell>
        <mxCell id="6aMnD60w7TeSPYlvOzXC-16" style="edgeStyle=orthogonalEdgeStyle;rounded=0;orthogonalLoop=1;jettySize=auto;html=1;exitX=0.5;exitY=0;exitDx=0;exitDy=0;entryX=0.5;entryY=1;entryDx=0;entryDy=0;" edge="1" parent="1" source="6aMnD60w7TeSPYlvOzXC-12" target="6aMnD60w7TeSPYlvOzXC-13">
          <mxGeometry relative="1" as="geometry" />
        </mxCell>
        <mxCell id="6aMnD60w7TeSPYlvOzXC-12" value="用户评价调整结果" style="rounded=1;whiteSpace=wrap;html=1;" vertex="1" parent="1">
          <mxGeometry x="490" y="330" width="120" height="60" as="geometry" />
        </mxCell>
        <mxCell id="6aMnD60w7TeSPYlvOzXC-13" value="生成详细投送计划" style="rounded=1;whiteSpace=wrap;html=1;" vertex="1" parent="1">
          <mxGeometry x="490" y="240" width="120" height="60" as="geometry" />
        </mxCell>
      </root>
    </mxGraphModel>
  </diagram>
</mxfile>
